<?xml version="1.0" standalone="no"?>
<!DOCTYPE svg PUBLIC "-//W3C//DTD SVG 20010904//EN"
 "http://www.w3.org/TR/2001/REC-SVG-20010904/DTD/svg10.dtd">
<svg version="1.0" xmlns="http://www.w3.org/2000/svg"
 width="500.000000pt" height="500.000000pt" viewBox="0 0 500.000000 500.000000"
 preserveAspectRatio="xMidYMid meet">
<metadata>
Created by potrace 1.11, written by Peter Selinger 2001-2013
</metadata>
<g transform="translate(0.000000,500.000000) scale(0.100000,-0.100000)"
fill="#000000" stroke="none">
<path d="M2530 3863 c-89 -46 -108 -162 -39 -239 16 -17 17 -26 9 -51 -11 -29
-14 -30 -83 -37 -40 -3 -86 -9 -103 -12 -28 -5 -33 -2 -71 57 l-41 62 19 36
c23 42 24 70 5 115 -19 45 -65 76 -113 76 -46 0 -227 -71 -260 -102 -74 -69
-28 -201 75 -215 46 -6 48 -10 58 -91 l6 -59 -53 -38 c-30 -21 -79 -60 -110
-86 l-56 -49 -41 18 c-35 15 -41 22 -45 56 -8 57 -52 97 -114 103 -58 6 -80
-9 -149 -99 -72 -93 -70 -184 6 -223 33 -17 92 -20 120 -5 15 8 23 3 45 -26
l27 -36 -30 -66 c-35 -78 -72 -194 -72 -227 0 -30 -10 -36 -93 -56 l-68 -16
-19 28 c-11 15 -40 35 -65 45 -43 16 -47 16 -91 -1 -73 -28 -84 -54 -84 -212
0 -126 1 -133 25 -162 31 -36 84 -55 131 -47 37 8 104 66 104 92 0 10 6 14 15
11 8 -4 41 -12 75 -19 52 -10 61 -16 66 -38 12 -57 23 -71 52 -68 31 3 31 11
10 113 l-13 60 -124 29 c-139 33 -151 31 -163 -30 -12 -58 -50 -80 -82 -48
-12 12 -16 37 -16 110 0 81 3 97 20 114 11 11 25 20 30 20 17 0 50 -39 50 -60
0 -40 31 -42 162 -10 138 33 152 42 163 116 10 72 43 171 81 246 19 37 34 75
34 85 0 27 -127 173 -150 173 -11 0 -29 -9 -41 -21 -25 -25 -63 -22 -67 6 -4
31 77 135 105 135 24 0 26 -3 27 -65 1 -40 2 -40 77 -77 121 -59 117 -59 198
15 39 36 102 86 140 111 38 25 71 54 73 64 5 19 -2 82 -22 203 -14 80 -32 99
-80 79 -42 -17 -72 -5 -68 28 3 29 40 52 144 87 41 14 60 16 72 8 28 -17 25
-42 -7 -70 -17 -15 -31 -34 -31 -42 0 -20 131 -211 156 -228 18 -11 30 -11 85
2 35 8 92 15 126 15 77 0 101 20 132 106 28 81 27 89 -14 114 -29 18 -35 28
-35 55 0 46 22 65 75 65 60 0 93 -15 101 -45 10 -40 -3 -71 -35 -85 -36 -15
-39 -26 -28 -114 10 -89 19 -103 70 -116 64 -17 140 -46 207 -80 33 -16 65
-30 72 -30 19 0 211 156 222 180 8 17 3 27 -22 53 -34 35 -39 56 -20 75 22 22
44 13 126 -54 83 -66 96 -90 66 -115 -12 -10 -22 -10 -48 -1 -58 21 -65 17
-101 -62 -19 -41 -43 -94 -54 -117 -28 -58 -26 -80 9 -114 26 -25 33 -27 55
-17 25 12 35 54 16 67 -6 3 5 37 25 78 31 65 37 72 61 69 74 -10 153 75 139
151 -8 42 -34 71 -139 151 -53 40 -87 59 -115 63 -99 13 -174 -96 -127 -187
14 -28 14 -28 -41 -76 l-56 -47 -46 23 c-26 12 -83 35 -127 50 -79 27 -80 28
-83 65 -3 29 1 41 17 52 54 37 68 135 28 193 -32 49 -75 70 -154 76 -54 4 -75
1 -103 -13z"/>
<path d="M2562 3254 c-47 -33 -21 -74 48 -74 49 0 70 13 70 41 0 23 -37 49
-70 49 -14 0 -36 -7 -48 -16z"/>
<path d="M2082 3154 c-127 -63 -202 -177 -202 -305 0 -73 19 -122 68 -173 53
-54 111 -77 198 -77 111 0 205 48 179 92 -4 6 7 23 24 38 25 22 28 30 18 41
-6 8 -3 7 9 -3 29 -24 49 -21 73 9 34 43 54 120 48 184 -13 144 -113 229 -268
230 -68 0 -84 -4 -147 -36z m325 -226 c-3 -7 -5 -2 -5 12 0 14 2 19 5 13 2 -7
2 -19 0 -25z m-416 -5 c-12 -20 -14 -14 -5 12 4 9 9 14 11 11 3 -2 0 -13 -6
-23z m104 -223 c13 -6 15 -9 5 -9 -8 0 -22 4 -30 9 -18 12 -2 12 25 0z m125 0
c-8 -5 -22 -9 -30 -9 -10 0 -8 3 5 9 27 12 43 12 25 0z"/>
<path d="M2884 3161 c-156 -38 -184 -215 -45 -288 78 -41 177 -22 234 46 37
45 43 89 19 143 -22 51 -58 81 -117 97 -44 12 -47 12 -91 2z m92 -206 c-11 -8
-34 -14 -50 -14 -29 1 -29 2 7 9 20 4 40 10 44 13 3 4 9 7 12 7 3 0 -3 -7 -13
-15z"/>
<path d="M3540 3151 c-24 -12 -44 -35 -63 -75 -24 -48 -32 -56 -57 -56 -22 0
-33 8 -49 36 -17 28 -26 35 -48 32 -47 -5 -52 -31 -18 -94 35 -64 48 -69 143
-59 88 9 116 26 107 66 -16 74 69 109 106 44 10 -16 23 -51 30 -77 12 -42 11
-49 -6 -68 -24 -27 -57 -25 -93 5 -17 14 -34 25 -38 25 -16 0 -144 -92 -154
-110 -7 -13 -6 -38 5 -82 9 -35 18 -109 22 -166 4 -73 11 -109 22 -122 17 -19
218 -110 244 -110 20 0 36 21 43 59 8 37 46 53 70 29 13 -13 13 -25 -1 -104
-20 -115 -29 -134 -59 -134 -30 0 -44 16 -48 60 l-3 35 -125 3 c-86 1 -133 -2
-150 -11 -26 -13 -27 -15 -91 -154 -48 -105 -49 -96 35 -196 54 -65 67 -71
110 -50 44 20 82 7 92 -32 9 -35 -41 -99 -80 -103 -38 -5 -67 23 -64 63 3 44
-5 52 -89 91 -101 46 -119 44 -173 -12 -25 -25 -79 -70 -121 -100 -42 -30 -82
-60 -89 -68 -9 -12 -7 -42 9 -142 11 -69 26 -133 32 -140 14 -17 40 -18 74 -2
22 10 29 9 47 -10 19 -19 20 -23 7 -42 -14 -22 -166 -90 -200 -90 -45 0 -47
56 -4 84 14 9 25 25 25 36 0 27 -148 230 -168 230 -9 0 -72 -7 -140 -17 -111
-15 -132 -15 -223 -2 -73 11 -106 12 -122 4 -20 -9 -167 -228 -167 -247 0 -5
18 -26 40 -48 35 -34 39 -43 34 -72 -4 -18 -11 -37 -15 -43 -11 -11 -171 42
-206 68 -12 10 -23 29 -23 42 0 37 26 55 80 55 43 0 49 3 58 28 6 15 16 82 23
149 9 95 9 126 0 137 -7 8 -42 32 -79 54 -37 22 -102 72 -145 111 -42 39 -86
71 -97 71 -29 0 -223 -81 -238 -99 -7 -9 -10 -28 -6 -48 7 -39 -8 -63 -42 -63
-27 0 -93 81 -94 115 0 42 54 62 80 30 28 -33 56 -18 139 77 46 52 81 102 81
113 0 27 -43 117 -64 134 -13 11 -22 11 -41 3 -29 -13 -31 -36 -9 -91 l16 -40
-42 -49 -41 -50 -65 6 -64 5 -40 -42 c-35 -37 -40 -48 -40 -89 0 -39 8 -60 41
-111 48 -74 88 -101 147 -101 70 0 132 58 132 123 0 20 10 29 61 51 33 14 65
26 71 26 5 0 34 -21 63 -47 29 -27 85 -68 124 -93 l71 -45 -5 -40 c-15 -136
-14 -132 -54 -139 -37 -6 -77 -39 -100 -83 -27 -54 -2 -142 51 -177 37 -24
210 -86 242 -86 64 0 102 42 121 136 6 33 -13 95 -40 124 -12 13 -8 24 31 84
24 38 45 71 47 72 2 2 45 -1 96 -6 84 -9 196 -3 297 15 26 5 33 0 73 -56 l44
-61 -22 -38 c-26 -47 -26 -70 -1 -119 20 -40 69 -71 112 -71 23 0 189 62 236
89 13 7 33 33 44 58 18 41 19 50 7 85 -20 61 -71 93 -149 93 -1 0 -7 33 -14
73 l-13 74 56 38 c31 22 78 59 105 83 l49 45 41 -19 c31 -14 43 -25 49 -51 19
-73 75 -118 147 -118 56 0 91 21 134 79 48 65 55 107 27 164 -29 61 -85 92
-152 84 -46 -6 -50 -4 -74 27 l-25 33 29 64 c16 35 31 72 35 82 4 14 18 17 83
17 l78 0 18 -33 c24 -43 65 -67 117 -67 36 0 48 6 79 38 35 34 39 46 60 153
12 64 19 125 15 135 -14 44 -30 66 -60 84 -56 35 -131 20 -171 -35 l-19 -27
-67 28 -67 28 0 40 c0 38 -8 98 -25 202 -6 37 -4 42 20 58 26 17 29 17 66 1
102 -46 217 33 206 140 -6 50 -42 146 -65 172 -45 52 -122 67 -182 34z"/>
<path d="M2709 2651 c-21 -16 -22 -22 -11 -45 10 -22 18 -26 56 -26 35 0 48 5
56 20 28 53 -50 93 -101 51z"/>
<path d="M1842 2534 c-28 -19 -28 -49 0 -68 21 -15 23 -14 45 32 13 26 23 48
23 50 0 9 -50 -1 -68 -14z"/>
<path d="M2968 2518 c-12 -10 -14 -24 -9 -62 5 -44 8 -47 20 -33 7 10 22 17
32 17 16 0 19 8 19 45 0 40 -2 45 -23 45 -13 0 -30 -6 -39 -12z"/>
<path d="M2380 2418 c-15 -89 -48 -128 -104 -128 -35 0 -36 -1 -30 -27 10 -42
29 -75 61 -105 36 -34 73 -48 128 -48 81 0 141 39 176 115 26 56 24 63 -18 67
l-38 3 -3 81 -3 81 -35 16 c-19 9 -54 17 -78 17 l-43 0 -13 -72z m73 -25 c-7
-2 -21 -2 -30 0 -10 3 -4 5 12 5 17 0 24 -2 18 -5z m0 -190 c-7 -2 -21 -2 -30
0 -10 3 -4 5 12 5 17 0 24 -2 18 -5z"/>
<path d="M3108 2370 c-2 -61 0 -110 4 -110 17 0 51 76 51 114 0 41 -26 106
-43 106 -5 0 -10 -50 -12 -110z"/>
<path d="M2308 2441 c-29 -26 -31 -32 -23 -57 13 -36 30 -41 48 -12 19 30 31
98 18 98 -6 0 -25 -13 -43 -29z"/>
<path d="M2861 2374 c0 -11 3 -14 6 -6 3 7 2 16 -1 19 -3 4 -6 -2 -5 -13z"/>
<path d="M2932 2317 c-22 -40 -22 -41 -4 -59 10 -10 34 -21 54 -24 31 -5 36
-3 41 17 12 44 8 58 -18 65 -14 3 -31 14 -38 24 -11 17 -15 14 -35 -23z"/>
<path d="M1915 2246 c-102 -44 -124 -181 -41 -254 63 -55 141 -54 200 1 87 83
54 224 -60 256 -49 14 -62 13 -99 -3z m80 -196 c-3 -5 -14 -10 -23 -9 -14 0
-13 2 3 9 27 11 27 11 20 0z"/>
<path d="M2876 2058 c-25 -36 -1 -62 60 -66 49 -3 74 12 74 44 0 46 -106 63
-134 22z"/>
<path d="M2542 1980 c-44 -27 -75 -97 -66 -146 12 -66 80 -124 144 -124 134 0
197 162 100 255 -41 39 -128 47 -178 15z m116 -76 c26 -18 30 -65 6 -88 -23
-24 -70 -20 -88 6 -23 32 -20 54 10 77 32 25 43 26 72 5z"/>
<path d="M2214 1926 c-3 -8 -4 -25 -2 -38 3 -20 8 -23 52 -23 56 0 80 21 60
53 -15 23 -102 30 -110 8z"/>
</g>
</svg>
